PathFileType	4	(X/Y/Z)	G:\Shared drives\HIT\Data\HapticPilot\Subject1\Edited\static1.trc
DataRate	CameraRate	NumFrames	NumMarkers	Units	OrigDataRate	OrigDataStartFrame	OrigNumFrames
50.00	50.00	       4	38	mm	50.00	86	       227
Frame#	Time	r_knee			r_shank(antsup)			r_ankle			r_calc			r_5meta			r_toe			L_knee			L_shank(ant_sup)			L_ankle			L_calc			L_5meta			L_toe			r_mknee			r_mankle			L_mknee			L_mankle			r_sh2			r_sh3			r_sh4			L_sh2			L_sh3			r_thigh1			r_thigh2			r_thigh3			r_thigh4			r_thigh5			L_thigh1			L_thigh2			L_thigh3			L_thigh4			r.ASIS			r.PSIS			L.ASIS			L.PSIS			C7			R_Shoulder			L_Shoulder			Sternum			
		X1	Y1	Z1	X2	Y2	Z2	X3	Y3	Z3	X4	Y4	Z4	X5	Y5	Z5	X6	Y6	Z6	X7	Y7	Z7	X8	Y8	Z8	X9	Y9	Z9	X10	Y10	Z10	X11	Y11	Z11	X12	Y12	Z12	X13	Y13	Z13	X14	Y14	Z14	X15	Y15	Z15	X16	Y16	Z16	X17	Y17	Z17	X18	Y18	Z18	X19	Y19	Z19	X20	Y20	Z20	X21	Y21	Z21	X22	Y22	Z22	X23	Y23	Z23	X24	Y24	Z24	X25	Y25	Z25	X26	Y26	Z26	X27	Y27	Z27	X28	Y28	Z28	X29	Y29	Z29	X30	Y30	Z30	X31	Y31	Z31	X32	Y32	Z32	X33	Y33	Z33	X34	Y34	Z34	X35	Y35	Z35	X36	Y36	Z36	X37	Y37	Z37	X38	Y38	Z38	

86	1.700	773.29120	409.15900	578.81091	787.64288	404.38559	491.83560	735.02032	408.96445	114.20529	646.42841	451.98456	71.30070	847.11707	382.31244	39.38862	886.08466	445.07956	73.64454	767.46954	732.33063	573.37909	792.45782	733.63379	455.94391	705.25977	732.13641	113.38820	629.71539	681.33612	73.48635	821.00525	777.83173	42.57089	868.07050	721.38690	71.13321	770.92224	535.15527	557.96301	746.94727	505.18781	120.74304	785.59973	610.05029	562.70044	736.78241	642.27118	120.70764	784.31775	401.22760	371.62219	712.72614	392.30890	491.56851	702.33350	385.69449	375.70438	704.77679	752.21252	476.04532	692.53394	753.65704	354.02899	841.34448	392.78403	898.87823	840.30841	395.73947	783.91113	794.64026	383.43021	750.80634	728.16791	382.01981	892.98334	733.68152	393.80518	775.94818	854.83655	752.65881	840.06921	856.58502	743.66779	701.91614	739.54065	771.26758	838.45801	744.38477	752.10010	704.02130	864.54034	446.83264	1094.93506	675.38361	539.50793	1126.91895	873.28107	705.03217	1096.31018	683.47852	622.12341	1125.71411	725.29462	587.77490	1609.18042	768.05835	422.62161	1582.23694	790.75262	764.18451	1575.09753	864.83069	580.61987	1534.10107	
87	1.720	773.23132	409.15231	578.81989	787.62585	404.34576	491.83588	735.01746	408.94086	114.17991	646.40887	451.98737	71.33772	847.13043	382.24258	39.41451	886.06702	445.07520	73.66961	767.44983	732.32031	573.37164	792.39624	733.66180	455.91193	705.31732	732.12140	113.36243	629.71680	681.29633	73.47707	820.97430	777.85199	42.55714	868.05811	721.35864	71.11437	770.76465	535.16461	557.96729	746.93793	505.16727	120.70712	785.58209	610.03925	562.71246	736.84076	642.26074	120.74270	784.25867	401.25012	371.64102	712.64691	392.31500	491.55801	702.29779	385.70447	375.65881	704.75848	752.22333	476.04468	692.50360	753.66107	354.02310	841.34814	392.79062	898.90900	840.14142	395.72241	783.87994	794.62427	383.41077	750.79706	728.17712	382.05859	893.02979	733.66315	393.79990	776.01886	854.81354	752.65076	840.03241	856.59839	743.64014	701.90942	739.53192	771.28186	838.45654	744.28387	752.07202	703.99402	864.55920	446.83606	1094.85864	675.47052	539.45245	1126.93518	873.14337	704.99512	1096.16382	683.59326	622.10968	1125.68530	725.33807	587.69122	1609.18103	768.08453	422.56393	1582.20093	790.93042	764.07635	1575.09546	864.93384	580.61407	1534.17834	
88	1.740	773.16266	409.17548	578.82275	787.52216	404.39902	491.83380	734.99597	408.95151	114.21183	646.41644	452.02194	71.29194	847.11865	382.28598	39.38800	886.05219	445.07928	73.64038	767.44659	732.32349	573.35596	792.43127	733.67828	455.93692	705.27502	732.13416	113.38263	629.68115	681.29327	73.48092	820.99774	777.85693	42.57000	868.07416	721.39349	71.11821	770.75116	535.19812	557.95941	746.96075	505.18658	120.75116	785.57306	610.06219	562.70551	736.79913	642.30347	120.67716	784.21820	401.21207	371.68201	712.62280	392.36386	491.58499	702.21326	385.71671	375.67990	704.70978	752.21509	476.02521	692.59882	753.66473	354.04306	841.39276	392.79245	898.94318	840.06439	395.69611	783.90277	794.56561	383.43228	750.84833	728.12079	382.01758	893.12054	733.67206	393.85434	776.03979	854.87512	752.64954	840.02148	856.61603	743.67664	701.87372	739.56665	771.30054	838.46973	744.41351	752.09070	704.06689	864.60858	446.79865	1094.85535	675.50049	539.52454	1126.98047	873.38892	704.99597	1096.26660	683.71075	622.18152	1125.84937	725.34296	587.69104	1609.13538	768.08228	422.60275	1582.21460	791.00122	764.05981	1575.11182	865.07013	580.56445	1534.24744	
89	1.760	773.09296	409.17706	578.83093	787.50140	404.35672	491.84476	734.98804	408.96155	114.18455	646.42743	452.08203	71.17935	847.11670	382.27975	39.39662	886.06818	445.09766	73.64075	767.48962	732.34460	573.33801	792.43872	733.66333	455.91925	705.30927	732.15179	113.33485	629.72449	681.31586	73.42355	820.99823	777.85699	42.49904	868.07904	721.40601	71.03770	770.77112	535.16699	557.97168	746.95245	505.21313	120.74234	785.54865	610.06866	562.74744	736.79340	642.31958	120.72253	784.22900	401.25079	371.68442	712.54761	392.37323	491.57925	702.21539	385.73621	375.67041	704.71381	752.22357	476.05627	692.50854	753.67224	354.09286	841.31665	392.80185	898.91040	840.15546	395.70050	783.96576	794.52570	383.46683	750.86908	728.16736	382.15836	893.10553	733.62292	394.05362	776.04596	854.90814	752.65192	840.01404	856.63959	743.67212	701.88422	739.61157	771.31335	838.47766	744.49829	752.17316	704.02582	864.67010	446.84372	1094.83105	675.58197	539.58398	1126.95251	873.23346	704.92926	1096.13232	683.81140	622.22809	1125.82849	725.40967	587.73706	1609.17493	768.12311	422.61920	1582.19006	791.07910	764.02161	1575.09473	865.18048	580.50189	1534.31006	
